<svg width="12" height="12" viewBox="0 0 12 12" fill="none" xmlns="http://www.w3.org/2000/svg">
  <path d="M6.068 11.06C7.028 11.06 7.91 10.826 8.714 10.358C9.518 9.878 10.16 9.23 10.64 8.414C11.12 7.598 11.36 6.68 11.36 5.66C11.36 4.628 11.12 3.704 10.64 2.888C10.16 2.072 9.518 1.43 8.714 0.961999C7.91 0.493999 7.028 0.259999 6.068 0.259999C5.048 0.259999 4.118 0.493999 3.278 0.961999C2.45 1.43 1.79 2.072 1.298 2.888C0.806 3.704 0.56 4.628 0.56 5.66C0.56 6.68 0.806 7.598 1.298 8.414C1.79 9.23 2.45 9.878 3.278 10.358C4.118 10.826 5.048 11.06 6.068 11.06Z" fill="#100F0F"/>
</svg>
